<?xml version="1.0" encoding="utf-8"?>
<!-- Generator: Adobe Illustrator 16.0.0, SVG Export Plug-In . SVG Version: 6.00 Build 0)  -->
<!DOCTYPE svg PUBLIC "-//W3C//DTD SVG 1.1//EN" "http://www.w3.org/Graphics/SVG/1.1/DTD/svg11.dtd">
<svg version="1.1" xmlns="http://www.w3.org/2000/svg" xmlns:xlink="http://www.w3.org/1999/xlink" x="0px" y="0px" width="1280px"
	 height="720px" viewBox="0 0 1280 720" enable-background="new 0 0 1280 720" xml:space="preserve">
<g id="Layer_1">
</g>
<g id="Layer_2">
	<path fill="#BFBFBF" stroke="#000000" stroke-width="2" stroke-miterlimit="10" d="M879.953,719.158h-17.461V19.841h17.461
		c5.436,0,9.842-4.406,9.842-9.841s-4.406-9.841-9.842-9.841h-25.737C853.655,0.061,853.081,0,852.492,0s-1.163,0.061-1.724,0.159
		h-73.337C776.871,0.061,776.297,0,775.708,0s-1.163,0.061-1.724,0.159h-73.337C700.087,0.061,699.513,0,698.924,0
		s-1.163,0.061-1.724,0.159h-73.337C623.303,0.061,622.729,0,622.14,0s-1.163,0.061-1.724,0.159h-73.337
		C546.518,0.061,545.944,0,545.355,0s-1.163,0.061-1.724,0.159h-73.337C469.734,0.061,469.16,0,468.571,0s-1.163,0.061-1.724,0.159
		h-73.337C392.95,0.061,392.376,0,391.787,0s-1.163,0.061-1.724,0.159h-73.337C316.166,0.061,315.592,0,315.003,0
		s-1.163,0.061-1.724,0.159h-26.226c-5.435,0-9.841,4.406-9.841,9.841s4.406,9.841,9.841,9.841h17.95v699.317h-17.95
		c-5.435,0-9.841,4.406-9.841,9.842s4.406,9.842,9.841,9.842h592.9c5.436,0,9.842-4.406,9.842-9.842
		S885.389,719.158,879.953,719.158z M381.787,719.158h-56.784V19.841h56.784V719.158z M842.492,19.841V247.25h-56.784V19.841
		H842.492z M808.704,294.497c-3.574-2.067-5.795-5.913-5.795-10.036c0-6.387,5.195-11.582,11.583-11.582s11.584,5.195,11.584,11.582
		c0,4.123-2.222,7.969-5.796,10.036l-2.035,1.179v16.193c0,2.069-1.685,3.752-3.753,3.752c-2.069,0-3.753-1.683-3.753-3.752v-16.193
		L808.704,294.497z M632.14,19.841h56.784v205.859H632.14V19.841z M710.563,244.29c0.325,0.116,1.14,1.092,1.14,2.71v106.5
		c0,1.58-0.778,2.549-1.116,2.7l-254.145,0.009c-0.324-0.115-1.14-1.092-1.14-2.709V247c0-1.618,0.815-2.594,1.079-2.701
		L710.563,244.29z M555.355,19.841h56.784v205.859h-56.784V19.841z M478.571,19.841h56.784v205.859h-56.784V19.841z
		 M458.571,719.158h-56.784V19.841h56.784v205.859h-2.19c-10.85,0-19.677,9.555-19.677,21.299v106.5
		c0,11.744,8.827,21.298,19.677,21.298h2.19V719.158z M535.355,719.158h-56.784V374.799h56.784V719.158z M612.14,719.158h-56.784
		V374.799h56.784V719.158z M688.924,719.158H632.14V374.799h56.784V719.158z M765.708,719.158h-56.784V374.799h1.701
		c10.851,0,19.678-9.555,19.678-21.298V247c0-11.745-8.827-21.299-19.678-21.299h-1.701V19.841h56.784V719.158z M785.708,719.158
		V341.25h56.784v377.908H785.708z"/>
</g>
</svg>
